<?xml version="1.0" standalone="no"?>
<!DOCTYPE svg PUBLIC "-//W3C//DTD SVG 20010904//EN"
 "http://www.w3.org/TR/2001/REC-SVG-20010904/DTD/svg10.dtd">
<svg version="1.0" xmlns="http://www.w3.org/2000/svg"
 width="200.000000pt" height="200.000000pt" viewBox="0 0 200.000000 200.000000"
 preserveAspectRatio="xMidYMid meet">
<metadata>
Created by potrace 1.15, written by Peter Selinger 2001-2017
</metadata>
<g transform="translate(0.000000,200.000000) scale(0.100000,-0.100000)"
fill="#000000" stroke="none">
<path d="M1519 1995 c-5 -20 -3 -33 8 -50 15 -22 18 -171 4 -179 -16 -10 -19
-56 -4 -65 12 -6 13 -25 9 -97 -6 -96 -6 -92 -3 -239 1 -68 -1 -99 -9 -98 -13
2 -6 -44 7 -53 13 -7 11 -194 -1 -194 -5 0 -10 -11 -10 -25 0 -14 5 -25 10
-25 6 0 10 -40 10 -100 0 -60 -4 -100 -10 -100 -5 0 -10 -10 -10 -23 0 -24
-57 -87 -78 -87 -7 0 -12 -5 -12 -12 0 -9 -4 -8 -14 2 -16 16 -25 167 -12 188
3 6 1 12 -4 14 -6 2 -2 13 9 25 17 17 19 30 14 76 -5 47 -3 57 17 77 14 14 20
29 17 43 -3 12 -8 38 -11 57 l-7 35 16 -28 c9 -16 18 -27 19 -25 2 1 6 27 10
56 7 56 -4 68 -31 35 -12 -16 -13 -9 -7 57 9 100 5 243 -7 251 -5 3 -7 13 -4
22 4 9 1 24 -5 34 -11 17 -11 17 -6 0 3 -11 2 -15 -4 -12 -6 3 -10 12 -10 19
0 8 -7 19 -15 26 -8 7 -15 18 -14 24 3 23 -2 34 -25 61 -14 16 -23 32 -20 37
3 4 -2 11 -10 14 -9 3 -13 11 -9 17 3 5 1 7 -5 3 -6 -3 -13 -2 -17 4 -4 6 -10
8 -14 5 -5 -2 -21 11 -37 30 -16 19 -33 35 -38 35 -4 0 -3 -7 4 -15 6 -8 9
-19 5 -24 -3 -6 0 -8 8 -5 8 3 18 1 22 -5 4 -7 -1 -8 -12 -4 -16 6 -17 5 -3
-12 14 -17 14 -17 -7 -4 -13 7 -27 25 -31 39 -7 18 -23 30 -63 44 -30 10 -59
23 -66 28 -32 25 -240 16 -295 -13 -12 -6 -18 -6 -18 0 0 14 -50 -9 -50 -23
-1 -17 -68 -56 -86 -49 -30 11 -60 -41 -69 -125 -1 -14 -11 -31 -20 -38 -10
-8 -27 -33 -37 -56 -21 -46 -37 -158 -22 -158 5 0 22 40 37 87 37 116 69 164
132 201 42 24 61 28 99 26 27 -2 60 -13 76 -24 29 -21 70 -27 70 -11 0 5 15
19 34 30 30 19 46 21 144 18 102 -3 112 -5 142 -30 17 -15 35 -27 40 -27 4 0
24 -16 44 -36 41 -41 57 -90 55 -167 -3 -75 20 -145 54 -169 35 -25 39 -71 5
-66 -18 2 -24 11 -28 38 l-5 35 -65 5 c-36 3 -76 12 -90 21 -41 27 -119 40
-180 30 -76 -12 -172 -41 -192 -58 -11 -10 -18 -11 -23 -4 -3 7 -42 11 -93 11
-94 0 -157 -20 -183 -58 -10 -13 -39 -25 -94 -37 -44 -9 -87 -19 -95 -22 -8
-4 -19 -5 -25 -4 -5 1 -2 -6 8 -17 9 -10 17 -23 17 -29 0 -6 8 -13 18 -15 11
-3 24 -25 35 -59 9 -30 27 -68 39 -85 l23 -31 95 2 c68 1 106 7 135 20 22 10
44 19 50 19 5 1 18 31 30 68 38 127 74 129 135 7 22 -44 40 -85 40 -91 0 -5
11 -23 25 -40 14 -16 25 -37 25 -47 0 -16 -5 -16 -50 -7 -36 7 -59 7 -80 -1
-17 -6 -32 -8 -35 -3 -3 4 -14 6 -25 3 -11 -3 -17 -9 -14 -14 9 -15 -6 -10
-23 6 -14 14 -17 14 -35 -2 -11 -10 -22 -17 -24 -15 -20 12 -12 -5 16 -33 34
-35 34 -36 18 -63 -14 -23 -24 -27 -60 -27 -32 -1 -50 -7 -66 -23 -13 -13 -20
-27 -17 -32 3 -5 1 -11 -5 -15 -5 -3 -10 0 -10 8 0 10 -7 13 -18 11 -10 -3
-29 7 -46 25 -19 20 -25 31 -15 31 12 0 12 1 0 9 -12 8 -12 12 -2 25 8 9 9 16
3 16 -5 0 -15 -6 -22 -14 -6 -8 -21 -17 -33 -19 -22 -4 -22 -4 1 -6 33 -2 27
-15 -26 -60 l-49 -40 -47 48 -48 48 51 54 50 54 48 -45 48 -45 -43 45 c-40 43
-56 90 -30 90 6 0 8 3 5 6 -4 4 -13 2 -20 -4 -10 -9 -23 -2 -54 31 -23 23 -43
51 -46 62 -5 20 -5 20 -6 0 -1 -12 18 -39 44 -65 25 -24 45 -52 45 -61 0 -19
-93 -95 -98 -80 -2 6 -9 11 -15 11 -20 0 -67 53 -67 75 0 13 16 34 41 54 22
18 38 36 34 39 -3 4 -9 2 -13 -3 -4 -6 -22 -23 -40 -39 l-32 -30 -36 35 c-47
45 -56 69 -35 93 15 18 15 18 -7 7 -19 -10 -27 -8 -61 25 -22 20 -42 46 -44
58 l-4 21 -2 -21 c0 -13 16 -38 44 -65 25 -24 45 -48 45 -54 0 -5 -21 -32 -48
-60 l-47 -50 45 43 c25 23 50 42 56 42 17 0 84 -75 84 -94 0 -27 -41 -56 -70
-49 -23 5 -24 4 -7 -9 17 -13 18 -15 2 -28 -14 -11 -19 -10 -38 8 -19 19 -19
22 -4 22 32 0 17 17 -23 28 -22 5 -40 7 -40 3 0 -4 18 -22 40 -40 52 -41 52
-67 0 -105 -34 -26 -40 -35 -40 -68 0 -30 7 -44 35 -69 45 -41 45 -69 0 -103
-19 -15 -35 -32 -35 -38 0 -6 19 6 41 27 l41 37 44 -43 c25 -24 42 -50 41 -60
-2 -10 -24 -36 -49 -59 l-47 -41 -32 41 c-18 22 -35 38 -37 35 -3 -3 10 -21
28 -40 44 -45 45 -69 3 -101 -18 -14 -33 -30 -33 -36 0 -7 15 2 33 20 18 18
37 32 43 32 18 0 84 -75 84 -96 0 -18 -26 -48 -73 -84 -16 -12 -22 -9 -55 21
l-37 34 33 -36 c25 -27 32 -42 28 -62 l-5 -27 977 1 c539 0 968 4 957 9 -24
10 -51 40 -59 67 -4 14 5 30 34 58 56 55 53 78 -15 138 -31 27 -55 57 -55 68
0 10 3 19 8 19 18 0 102 84 102 102 0 11 -19 38 -42 60 l-43 39 43 -6 42 -7 0
36 c0 20 -4 36 -10 36 -5 0 -10 -4 -10 -10 0 -5 -7 -7 -15 -3 -9 3 -14 11 -12
17 2 6 -3 16 -11 22 -12 9 -12 13 -2 19 9 5 11 4 6 -3 -4 -8 -2 -10 8 -6 8 3
12 12 9 20 -3 8 3 17 13 21 12 5 19 18 19 34 1 20 -6 29 -28 37 -28 11 -29 11
-12 -8 23 -26 13 -62 -22 -81 -16 -8 -32 -20 -36 -26 -4 -7 -16 -13 -25 -13
-26 0 -112 78 -113 103 -1 18 -2 16 -9 -7 -18 -60 -46 -47 -49 23 -1 18 3 22
16 17 16 -6 15 -5 -1 12 -14 17 -18 47 -22 195 -4 119 -2 183 6 196 7 14 7 21
0 21 -5 0 -10 18 -10 40 0 24 5 40 12 40 9 0 9 3 0 12 -7 7 -12 39 -12 73 0
52 4 65 24 84 14 13 29 21 34 17 5 -3 7 6 4 22 -3 17 -7 21 -10 12 -6 -19 -33
-50 -43 -50 -5 0 -8 56 -6 125 1 69 0 125 -3 125 -3 0 -5 16 -5 35 0 19 4 35
10 35 5 0 4 5 -3 12 -19 19 -15 128 5 150 16 18 16 18 0 12 -14 -5 -17 0 -17
25 l0 31 -80 0 c-44 0 -81 -2 -81 -5z m-239 -906 c-17 -31 -75 -51 -167 -57
-105 -6 -139 7 -164 62 -20 46 -17 57 8 34 46 -41 143 -62 143 -32 0 13 37 33
47 26 2 -1 14 10 27 23 14 14 34 25 44 25 21 0 49 27 39 37 -4 3 1 12 11 19
16 11 17 7 20 -52 2 -35 -2 -73 -8 -85z m109 108 c12 -38 19 -237 9 -230 -5 2
-8 0 -8 -6 0 -5 6 -12 13 -14 9 -4 9 -8 -2 -15 -7 -5 -10 -15 -7 -21 4 -6 1
-11 -6 -12 -10 0 -10 -2 0 -6 6 -2 12 -9 12 -14 0 -6 -4 -8 -9 -5 -5 4 -15 -7
-23 -24 -7 -18 -18 -28 -26 -25 -16 6 -64 -24 -56 -36 3 -5 -6 -13 -20 -19
-14 -5 -26 -14 -26 -20 0 -17 -21 -11 -39 12 -15 18 -27 21 -83 20 -36 -1 -70
-2 -74 -3 -5 -2 -26 5 -48 14 l-39 17 34 23 c19 12 40 34 46 49 18 35 0 84
-38 104 -16 8 -29 18 -29 22 0 4 51 7 113 7 83 0 124 5 158 18 52 20 63 37 79
129 7 34 17 66 22 70 19 11 37 -2 47 -35z m-857 -82 c12 -14 27 -25 34 -25 24
0 74 -35 74 -52 0 -12 6 -16 23 -12 12 3 27 6 32 7 6 2 16 6 24 11 9 6 12 5 9
-5 -11 -37 -171 -73 -243 -55 -28 7 -57 58 -68 122 l-6 31 49 2 c42 1 53 -3
72 -24z m-317 -275 c18 -19 17 -20 -6 -21 -20 -1 -18 -3 11 -13 47 -15 60 -24
60 -42 0 -13 -54 -68 -85 -87 -18 -10 -95 65 -95 92 0 25 35 50 61 44 21 -6
27 12 7 20 -10 4 -9 8 2 16 21 15 24 14 45 -9z m429 -322 l21 -37 -40 -35 -40
-34 -47 46 c-53 51 -55 57 -31 84 13 15 28 18 66 16 45 -3 51 -6 71 -40z
m-173 5 c6 -17 -1 -28 -43 -63 l-50 -43 -44 44 c-44 43 -55 73 -31 83 6 2 45
4 86 3 65 -2 75 -4 82 -24z m1470 -5 c52 -42 51 -67 -5 -112 -23 -20 -48 -36
-53 -36 -17 0 -113 90 -113 105 0 23 72 75 103 75 17 0 44 -13 68 -32z m-1607
-72 c20 -24 36 -48 36 -53 0 -14 -87 -96 -97 -92 -18 8 -83 87 -83 102 0 17
77 87 96 87 6 0 28 -20 48 -44z m194 1 c23 -23 42 -50 42 -59 0 -8 -21 -35
-46 -58 l-46 -42 -44 43 c-24 24 -44 50 -44 58 0 14 77 101 90 101 3 0 25 -19
48 -43z m1337 -107 c-1 -22 -27 -53 -68 -82 -26 -19 -29 -19 -52 -4 -22 15
-25 23 -25 83 0 54 4 71 21 89 l22 23 52 -45 c31 -28 51 -52 50 -64z m-1639
-11 c28 -27 40 -47 37 -58 -8 -22 -75 -91 -89 -91 -11 0 -94 88 -94 101 0 8
87 89 97 89 4 0 26 -19 49 -41z m199 1 c52 -53 51 -73 -3 -121 -25 -21 -48
-39 -51 -39 -7 0 -91 96 -91 104 0 6 93 95 100 96 3 0 23 -18 45 -40z m1560
-130 c2 -26 -68 -93 -91 -88 -11 1 -29 23 -42 48 -13 27 -31 47 -45 51 -21 5
-19 8 25 53 l48 48 52 -47 c28 -25 52 -55 53 -65z m-1636 -53 c-9 -7 -41 -21
-72 -31 -55 -19 -58 -19 -77 -1 -30 27 -25 42 28 90 l47 43 45 -45 c39 -39 43
-46 29 -56z m517 43 c24 -22 50 -40 59 -40 8 0 15 -5 15 -11 0 -6 7 -9 15 -5
12 4 12 1 -2 -21 -9 -14 -19 -21 -21 -14 -7 20 -22 12 -22 -13 0 -21 -49 -69
-50 -49 0 5 -5 0 -11 -9 -15 -27 -26 -22 -55 22 -23 35 -25 45 -19 92 4 29 6
54 4 55 -4 2 33 32 40 33 2 0 23 -18 47 -40z"/>
</g>
</svg>
