<?xml version="1.0" standalone="no"?>
<!DOCTYPE svg PUBLIC "-//W3C//DTD SVG 20010904//EN"
 "http://www.w3.org/TR/2001/REC-SVG-20010904/DTD/svg10.dtd">
<svg version="1.0" xmlns="http://www.w3.org/2000/svg"
 width="1040.000000pt" height="1038.000000pt" viewBox="0 0 1040.000000 1038.000000"
 preserveAspectRatio="xMidYMid meet">
<metadata>
Created by potrace 1.15, written by Peter Selinger 2001-2017
</metadata>
<g transform="translate(0.000000,1038.000000) scale(0.100000,-0.100000)"
fill="#000000" stroke="none">
<path d="M0 7469 l0 -2911 40 42 c22 23 43 54 46 68 3 15 10 44 15 64 5 20 7
79 3 130 -6 91 7 186 37 260 28 69 148 67 229 -4 23 -21 47 -38 53 -38 6 0 32
24 59 53 l49 52 -4 61 c-3 39 -11 71 -23 87 -20 26 -85 67 -106 67 -8 0 -45
-16 -83 -36 -104 -54 -124 -58 -152 -32 -23 22 -31 48 -14 48 5 0 3 13 -5 29
-8 17 -15 62 -16 103 -1 64 2 78 22 106 22 29 25 47 32 180 4 81 12 239 17
352 6 113 13 336 16 495 5 269 9 431 20 805 11 361 15 481 20 565 14 252 38
1129 49 1805 3 228 9 448 11 488 l5 72 -160 0 -160 0 0 -2911z"/>
<path d="M2325 10033 c2 -192 1 -395 -3 -453 -10 -146 3 -608 24 -891 5 -68 4
-98 -5 -103 -17 -11 -14 -49 4 -42 8 3 15 1 15 -4 0 -5 6 -15 14 -23 13 -12
13 -17 0 -36 -9 -12 -20 -19 -25 -16 -5 4 -9 -3 -9 -14 0 -12 5 -21 11 -21 11
0 9 -47 -7 -127 -6 -30 -4 -33 20 -33 17 0 26 -5 26 -16 0 -13 7 -15 35 -10
30 6 35 4 35 -12 0 -11 -11 -23 -27 -29 l-28 -11 27 -1 c35 -1 42 -14 17 -31
-10 -8 -19 -26 -20 -40 -1 -14 -4 -36 -8 -50 l-7 -24 -30 32 c-36 37 -44 33
-44 -20 0 -27 4 -38 15 -38 11 0 15 -11 15 -40 0 -22 4 -40 9 -40 5 0 11 -9
14 -20 7 -26 37 -26 37 0 0 18 4 16 33 -14 29 -29 32 -39 29 -76 -3 -25 0 -45
7 -49 7 -5 11 -49 12 -121 0 -67 5 -118 11 -121 7 -4 6 -9 -1 -13 -6 -4 -11
-2 -11 3 0 6 -7 11 -17 11 -14 0 -14 -2 2 -20 15 -17 16 -22 4 -36 -15 -19
-14 -132 2 -148 5 -6 9 -24 9 -42 0 -24 5 -33 21 -37 15 -4 20 -12 17 -29 -2
-16 4 -26 20 -33 23 -10 32 -60 12 -67 -14 -4 8 -68 23 -65 6 1 12 -7 14 -18
3 -16 2 -17 -6 -5 -7 10 -11 11 -11 3 0 -7 -8 -13 -17 -13 -17 -1 -17 -2 1
-15 12 -9 17 -22 14 -39 -3 -14 -2 -23 2 -21 13 8 16 -17 14 -103 -2 -75 -1
-82 14 -70 14 11 15 10 9 -5 -4 -10 -7 -25 -7 -33 0 -8 -6 -13 -12 -11 -9 1
-13 -14 -14 -48 l-2 -50 8 45 c7 45 7 45 8 8 1 -20 5 -44 8 -52 5 -12 2 -15
-10 -10 -14 5 -16 2 -11 -22 4 -16 8 -35 11 -41 2 -7 -1 -13 -6 -13 -6 0 -10
-16 -10 -35 0 -19 5 -35 11 -35 5 0 8 -4 4 -10 -9 -15 -16 -110 -8 -110 5 0 9
-18 11 -41 2 -31 0 -39 -10 -33 -10 6 -10 4 0 -8 9 -11 15 -62 19 -150 3 -73
10 -139 16 -146 6 -8 21 -12 33 -9 14 2 25 -2 28 -10 12 -31 5 -121 -11 -154
-11 -22 -17 -55 -16 -91 2 -66 -19 -102 -64 -111 -26 -5 -204 -57 -313 -91
-25 -8 -67 -19 -95 -26 -64 -15 -107 -42 -170 -106 -55 -57 -114 -99 -190
-134 -27 -13 -79 -47 -115 -76 -89 -71 -128 -91 -191 -98 -30 -4 -79 -9 -109
-13 -30 -3 -57 -9 -60 -14 -3 -4 -31 -5 -63 -2 -45 5 -58 10 -63 26 -4 11 -1
23 7 29 11 6 9 8 -6 6 -15 -2 -19 2 -17 17 2 11 5 25 5 30 1 6 -4 9 -10 8 -13
-3 -17 9 -14 35 3 17 -34 15 -49 -3 -7 -8 -21 -15 -31 -15 -23 0 -88 -68 -89
-93 0 -10 -6 -25 -14 -33 -15 -15 -30 -103 -29 -168 1 -24 -9 -60 -28 -96 -16
-32 -29 -62 -29 -67 0 -22 -96 -171 -141 -218 -26 -27 -65 -69 -87 -92 -22
-23 -37 -44 -34 -47 2 -3 -8 -10 -24 -16 -16 -5 -38 -15 -49 -21 -29 -18 -115
-18 -149 0 -39 19 -168 20 -191 1 -13 -11 -27 -10 -81 5 -51 14 -71 15 -90 6
-14 -6 -40 -11 -59 -11 l-35 0 0 -2165 0 -2165 1775 0 1775 0 5 23 c3 12 10
53 15 91 6 38 13 73 16 78 29 46 -2 122 -108 263 -84 112 -109 161 -132 262
-8 38 -31 123 -50 189 -74 258 -119 780 -86 991 23 141 73 293 117 351 25 33
25 35 22 205 -1 105 2 202 10 248 l13 76 -70 134 c-38 74 -75 152 -82 174 -7
22 -16 45 -20 50 -4 6 -11 21 -15 35 -4 14 -20 52 -35 85 -15 33 -33 78 -40
100 -7 22 -16 44 -21 49 -5 6 -9 17 -9 25 0 9 -14 45 -30 81 l-29 65 -21 -47
c-20 -46 -52 -78 -77 -78 -18 0 -71 88 -78 131 -5 28 1 54 26 114 l33 77 -18
86 c-10 47 -20 91 -23 99 -3 7 0 13 6 13 6 0 11 -5 11 -11 0 -12 38 -49 50
-49 6 0 20 24 20 34 0 1 -20 28 -45 61 -26 36 -45 71 -45 86 0 15 -9 72 -20
128 -33 164 -61 584 -42 631 9 24 10 24 18 5 4 -11 21 -44 37 -73 36 -66 47
-56 47 44 0 152 41 467 67 518 12 23 14 48 9 110 -6 75 -5 82 15 94 11 7 24
11 27 7 4 -3 12 29 19 72 8 43 19 82 25 88 8 7 9 4 4 -10 -4 -11 -11 -53 -15
-93 -5 -55 -4 -76 6 -84 16 -13 18 -128 2 -128 -7 0 -8 -12 -4 -32 15 -80 29
-134 37 -143 4 -5 8 -18 8 -29 0 -37 9 -11 30 89 11 55 29 192 40 305 17 177
38 313 51 324 2 2 28 16 58 31 36 18 63 25 81 21 15 -2 32 0 38 6 18 18 23 5
8 -24 -13 -25 -13 -25 14 -15 20 8 35 8 52 0 l23 -12 -27 0 c-15 -1 -29 -4
-32 -9 -2 -4 13 -6 34 -4 28 3 37 8 33 18 -3 10 2 14 19 14 13 0 28 4 34 9 15
15 132 51 146 46 25 -10 41 -45 27 -61 -6 -8 -17 -14 -24 -14 -7 0 -15 -7 -19
-15 -3 -8 -17 -20 -31 -27 -14 -6 -24 -17 -21 -24 3 -7 0 -24 -7 -37 -10 -21
-16 -24 -52 -20 -29 3 -36 2 -25 -6 12 -8 9 -12 -13 -20 -15 -6 -27 -15 -27
-21 0 -5 -7 -10 -16 -10 -8 0 -12 -4 -9 -10 3 -5 2 -10 -4 -10 -5 0 -12 4 -15
8 -7 12 -67 2 -91 -15 -20 -15 -20 -15 2 -8 20 5 21 3 20 -29 -1 -20 -7 -38
-14 -40 -12 -5 -11 -69 2 -98 4 -10 13 -18 21 -18 16 0 86 -47 96 -64 10 -17
11 -92 3 -145 -4 -29 -2 -53 6 -69 11 -20 18 -22 46 -17 18 3 33 2 33 -3 0
-16 30 -22 52 -11 18 10 20 9 14 -6 -4 -11 2 -23 19 -37 14 -11 23 -24 20 -29
-4 -5 0 -10 7 -11 7 0 18 -2 24 -2 28 -3 42 -28 41 -79 0 -28 4 -60 8 -69 5
-13 3 -18 -9 -18 -24 0 -20 -13 14 -45 17 -16 30 -35 30 -42 0 -25 176 -37
204 -14 10 9 29 11 54 6 37 -6 40 -5 46 21 l7 28 24 -30 c13 -16 24 -24 25
-17 0 6 14 21 31 34 23 16 33 19 42 10 17 -17 29 -13 22 9 -5 17 0 20 32 26
48 7 91 40 75 56 -16 16 -15 28 3 28 9 0 18 7 22 16 4 11 13 13 34 9 18 -4 29
-2 29 4 0 6 5 11 10 11 26 0 6 -30 -30 -44 -37 -15 -60 -40 -47 -52 16 -16 58
-13 74 6 10 11 25 20 33 20 24 0 61 46 54 67 -4 13 -3 14 3 5 7 -9 13 -5 23
15 8 16 20 35 27 44 43 53 102 255 106 365 2 55 4 60 20 50 9 -6 17 -20 17
-31 0 -16 -2 -17 -9 -6 -7 10 -11 0 -15 -35 -4 -27 -13 -83 -22 -124 -9 -41
-19 -93 -23 -116 -9 -47 -31 -86 -121 -209 -152 -205 -280 -282 -535 -321 -55
-9 -130 -20 -167 -26 -64 -10 -189 -5 -212 10 -6 3 -56 18 -111 33 -55 14
-117 33 -137 42 -22 10 -39 13 -43 7 -13 -21 164 -81 295 -101 102 -14 387 -6
475 14 121 29 123 29 98 16 -13 -7 -23 -16 -23 -21 0 -4 -7 -8 -15 -8 -8 0
-15 -7 -15 -16 0 -12 -6 -15 -23 -11 -30 8 -42 -2 -44 -37 -2 -32 -13 -48 -20
-28 -8 21 -33 13 -33 -10 0 -12 -3 -18 -7 -14 -4 3 -15 -12 -25 -34 -10 -22
-24 -40 -31 -40 -7 -1 1 -8 16 -16 16 -9 31 -13 35 -10 3 3 0 6 -6 6 -7 0 -12
4 -12 9 0 6 29 9 65 8 54 -2 65 -5 65 -19 0 -13 -7 -17 -27 -14 -16 2 -20 1
-10 -1 20 -5 23 -23 4 -23 -18 0 -80 -30 -88 -43 -10 -14 -31 3 -25 19 7 17
-1 18 -18 2 -10 -10 -9 -16 8 -33 12 -12 29 -20 39 -17 10 3 17 -1 17 -11 0
-8 -8 -17 -18 -19 -10 -3 -19 -12 -19 -21 0 -12 5 -14 18 -6 23 12 49 12 49
-1 0 -6 -6 -10 -12 -8 -7 1 -24 -4 -37 -11 -19 -10 -25 -11 -31 0 -5 7 -6 18
-3 26 3 7 2 21 -1 30 -11 29 -25 -5 -19 -45 4 -21 1 -37 -6 -41 -8 -5 -9 -15
-3 -31 8 -21 3 -29 -30 -57 -46 -38 -39 -36 -73 -23 -23 9 -27 7 -35 -16 -12
-32 -12 -34 0 -34 6 0 10 7 10 15 0 8 7 15 15 15 19 0 19 -9 -1 -50 -9 -18
-25 -35 -35 -37 -11 -3 -19 -10 -19 -15 0 -6 -7 -8 -15 -5 -8 4 -17 2 -20 -3
-4 -6 1 -10 10 -10 11 0 15 -5 12 -14 -3 -8 -1 -17 6 -19 21 -7 57 16 63 39 7
28 30 49 38 36 3 -5 -1 -23 -10 -40 -14 -29 -59 -52 -100 -52 -15 0 -52 -71
-47 -87 3 -7 0 -13 -6 -13 -13 0 -75 -60 -68 -66 3 -3 14 -1 25 5 26 14 62 14
62 1 0 -5 -5 -10 -12 -10 -6 0 -29 -8 -49 -17 -35 -17 -38 -21 -38 -58 0 -37
1 -39 14 -21 15 19 15 19 15 -3 0 -16 4 -21 15 -17 22 8 18 -7 -5 -22 -16 -10
-24 -10 -40 0 -14 9 -23 9 -30 2 -14 -14 -2 -64 14 -61 6 1 9 -5 7 -13 -3 -8
-5 -33 -5 -55 -1 -33 2 -40 18 -40 21 0 33 -20 17 -29 -6 -4 -6 -18 -1 -35 6
-22 4 -33 -9 -45 -15 -16 -15 -18 5 -34 12 -9 24 -25 27 -34 4 -10 16 -18 28
-18 20 0 21 -3 14 -57 -4 -32 -12 -64 -18 -71 -8 -10 -7 -16 4 -22 11 -7 7
-12 -17 -20 -33 -12 -45 -42 -45 -113 0 -24 -2 -26 -19 -17 -27 14 -32 13 -25
-9 3 -11 1 -22 -5 -26 -6 -4 -8 -15 -5 -26 5 -15 1 -19 -15 -19 -28 0 -21 -24
8 -28 29 -4 28 -20 -3 -34 -19 -9 -28 -9 -37 0 -9 9 -8 12 5 12 21 0 22 16 3
23 -9 4 -17 -2 -21 -14 -7 -20 -49 -27 -60 -9 -4 6 -10 8 -15 5 -15 -9 1 -68
24 -93 21 -23 21 -24 2 -38 -20 -14 -20 -14 0 -14 10 0 25 -9 32 -20 10 -16
10 -20 -1 -20 -7 0 -18 5 -25 12 -20 20 -37 -40 -17 -62 8 -9 15 -22 15 -29 0
-6 9 -25 20 -41 11 -17 29 -44 41 -61 11 -16 23 -51 25 -76 2 -25 7 -49 10
-54 2 -5 -6 -11 -20 -15 -19 -4 -24 -12 -24 -34 1 -16 7 -31 15 -34 20 -8 16
-44 -7 -58 -26 -16 -25 -24 2 -31 l22 -6 -23 -25 c-20 -21 -22 -28 -11 -41 11
-14 7 -19 -12 -16 -15 2 -8 -37 7 -43 9 -3 15 -18 15 -39 0 -21 8 -41 20 -52
11 -10 20 -26 20 -35 0 -9 5 -21 12 -28 20 -20 0 -27 -22 -7 -16 14 -22 15
-35 5 -8 -7 -15 -21 -15 -32 0 -10 -6 -21 -14 -24 -13 -5 -16 -58 -3 -70 3 -4
0 -21 -8 -39 -7 -19 -10 -37 -7 -42 4 -4 -8 5 -25 21 -20 18 -43 56 -59 98
-14 37 -30 70 -35 74 -16 10 -23 -28 -9 -60 7 -17 25 -66 41 -108 15 -43 37
-95 48 -116 11 -22 25 -61 32 -88 7 -33 43 -97 107 -194 80 -120 121 -169 237
-285 142 -142 270 -242 645 -503 132 -91 218 -162 431 -353 41 -36 109 -89
151 -117 l77 -52 171 0 171 0 84 51 c47 28 132 90 189 138 184 154 297 230
491 335 308 165 325 175 433 253 60 44 119 96 142 126 21 29 58 77 81 107 23
30 53 81 65 113 13 31 37 75 54 97 48 60 105 233 135 405 8 44 17 90 20 102 5
16 1 24 -21 35 -47 22 -65 89 -62 222 3 102 5 111 23 113 121 16 135 15 141
-1 8 -20 -15 -106 -28 -106 -5 0 -16 -7 -24 -15 -20 -20 -4 -73 32 -104 17
-15 23 -28 19 -41 -3 -10 1 -41 9 -69 24 -82 29 -276 12 -496 -9 -110 -21
-261 -26 -335 -17 -215 -58 -385 -122 -504 -28 -50 -98 -146 -107 -146 -4 0
-16 -17 -26 -38 -13 -26 -20 -67 -23 -140 l-4 -102 1711 0 1711 0 -2 5193 c-2
2855 -4 4443 -5 3528 l-3 -1663 -40 40 c-22 22 -40 49 -40 60 0 35 -45 37 -88
3 -20 -16 -47 -32 -58 -35 -23 -7 -132 18 -148 34 -5 5 -19 10 -30 10 -30 0
-95 49 -102 77 -4 13 -11 23 -18 22 -27 -3 -36 3 -36 25 0 17 9 29 27 38 20
10 30 25 40 63 16 65 16 160 -2 209 -8 23 -10 47 -6 60 4 11 9 50 9 85 2 65
-19 121 -45 121 -22 0 -50 -40 -57 -80 -7 -44 2 -74 33 -109 12 -13 21 -30 21
-37 0 -18 -40 -64 -56 -64 -15 0 -116 -97 -131 -128 -7 -13 -13 -31 -13 -38 0
-8 -4 -14 -10 -14 -5 0 -10 14 -10 30 0 20 5 30 15 30 19 0 19 4 -2 71 -9 30
-16 84 -17 121 0 42 -5 69 -12 72 -6 2 -17 25 -25 50 -8 26 -19 46 -27 46 -12
0 -12 3 -2 15 10 12 9 16 -5 21 -13 5 -15 14 -11 38 8 38 29 86 37 86 4 0 12
12 18 28 6 15 28 38 48 51 33 21 44 23 113 18 73 -6 78 -5 98 18 57 65 69 128
77 395 3 113 10 284 15 380 12 230 12 416 0 462 -6 20 -19 46 -29 59 l-18 22
-81 -57 c-44 -31 -82 -62 -84 -68 -7 -19 -59 1 -90 34 -24 26 -28 38 -28 88 0
31 5 72 11 91 15 44 56 99 75 99 7 0 13 5 12 12 -2 6 6 14 17 16 11 2 24 11
28 19 9 15 63 11 99 -8 48 -26 63 5 84 180 9 69 20 160 25 201 5 41 12 139 16
218 l6 142 -86 0 -86 0 -11 -57 c-6 -32 -17 -80 -25 -108 -26 -95 -29 -151
-10 -197 18 -43 28 -208 13 -208 -4 0 -8 -10 -10 -22 -2 -12 -17 -30 -33 -40
-30 -17 -31 -17 -65 12 -19 17 -39 30 -44 30 -5 0 -30 21 -54 47 l-45 46 6 86
c4 47 13 106 20 130 12 38 12 52 0 90 -10 32 -12 68 -7 119 l6 72 -176 0 -176
0 -1 -52 c0 -29 -1 -381 -1 -783 0 -802 4 -1016 32 -1495 4 -80 6 -148 3 -152
-2 -5 1 -8 7 -8 7 0 8 -6 2 -16 -11 -20 -4 -53 16 -76 10 -12 11 -18 4 -18 -7
0 -12 -11 -12 -25 0 -37 28 -20 41 26 14 45 34 53 26 10 -7 -31 16 -64 26 -39
4 8 6 7 6 -4 1 -10 -4 -18 -10 -18 -13 0 -1 -63 12 -68 11 -4 12 -42 1 -42 -4
0 -8 -8 -9 -17 0 -10 -1 -29 -2 -43 -1 -14 0 -59 3 -100 l5 -75 56 -50 c30
-27 55 -55 55 -62 0 -6 16 -20 34 -31 l35 -21 25 20 c32 25 58 21 71 -9 5 -12
13 -22 17 -22 4 0 10 -16 14 -35 5 -26 -1 -48 -24 -97 -17 -35 -33 -73 -36
-84 -11 -38 -42 -56 -102 -60 -49 -4 -59 -1 -76 18 -14 17 -18 31 -13 55 8 43
-9 49 -37 12 -53 -70 -83 -90 -188 -125 -103 -35 -104 -35 -154 -19 -57 18
-94 11 -131 -26 -50 -49 -160 -100 -184 -85 -5 3 -16 -5 -25 -19 -27 -40 -86
-28 -86 17 0 28 -34 35 -159 34 -95 -2 -115 -5 -126 -19 -7 -10 -19 -15 -29
-11 -12 5 -18 -1 -22 -25 -5 -25 -11 -31 -33 -31 -53 0 -62 17 -50 95 6 39 15
78 21 88 9 19 2 57 -11 57 -4 0 -12 -5 -19 -12 -9 -9 -12 -4 -12 24 0 20 -4
39 -9 42 -18 11 -40 158 -46 301 l-4 110 30 38 c17 20 31 45 31 55 1 25 -21
100 -32 107 -6 3 -10 20 -10 36 0 36 -32 176 -66 286 -20 67 -34 92 -79 142
-30 34 -55 70 -55 81 0 10 -4 21 -9 24 -4 3 -11 20 -15 37 -7 39 -50 90 -87
106 -15 6 -33 22 -40 35 -7 13 -32 46 -56 73 -24 28 -48 68 -54 90 -16 58 -31
85 -46 85 -26 0 -93 72 -105 114 -6 22 -22 55 -35 73 -13 17 -23 36 -23 41 0
5 -12 30 -26 56 -17 31 -25 57 -22 76 3 17 1 30 -3 30 -5 0 -6 6 -3 14 4 10
-8 15 -43 20 -26 4 -100 30 -165 57 -64 27 -121 49 -126 49 -18 0 -130 39
-168 58 -22 11 -69 52 -107 91 -37 39 -71 71 -75 71 -5 0 -22 19 -39 43 -29
42 -32 44 -119 60 -49 9 -113 23 -142 32 -90 24 -294 40 -353 27 -68 -16 -120
-15 -146 3 -11 8 -54 19 -94 25 -121 18 -181 31 -231 51 -32 13 -71 19 -123
19 -63 0 -81 4 -106 23 -27 19 -45 22 -142 25 -171 5 -203 3 -254 -19 -26 -11
-73 -26 -103 -33 -38 -9 -67 -25 -95 -50 -37 -34 -44 -37 -82 -31 -29 4 -51 1
-72 -9 -36 -19 -70 -20 -93 -2 -27 20 -240 14 -295 -9 -24 -9 -43 -21 -43 -26
0 -14 -83 -57 -133 -69 -27 -6 -66 -19 -87 -30 -51 -26 -94 -26 -119 2 -11 11
-35 51 -53 87 l-33 66 1 220 c1 121 5 309 9 418 l6 197 -730 0 -731 0 5 -347z
m1590 -2593 c15 0 27 -10 39 -32 15 -31 16 -32 16 -8 1 23 2 23 20 -10 28 -52
38 -75 34 -79 -2 -2 -21 4 -44 13 -47 19 -50 19 -50 6 0 -5 4 -10 10 -10 5 0
27 -12 49 -27 41 -29 55 -58 45 -90 -3 -10 -2 -14 3 -8 16 21 48 14 61 -13 6
-14 12 -32 12 -40 0 -9 7 -11 22 -7 18 6 17 4 -8 -21 -32 -32 -44 -84 -20 -84
17 0 28 -24 20 -45 -4 -9 -1 -15 7 -15 8 0 27 -11 42 -24 25 -21 35 -23 90
-19 34 3 68 10 75 16 12 9 50 -15 73 -47 4 -5 14 -6 23 -3 10 4 16 1 16 -8 0
-8 5 -15 10 -15 6 0 10 5 10 10 0 6 7 10 15 10 9 0 15 9 15 25 0 28 6 31 25
11 10 -10 11 -16 2 -25 -8 -8 -2 -11 26 -11 21 0 37 -5 37 -11 0 -8 4 -9 13 0
8 6 16 8 19 5 10 -10 98 -11 98 -1 0 5 -8 16 -17 23 -10 7 -13 13 -8 13 6 0
18 -6 28 -13 15 -12 16 -18 8 -35 -15 -27 -14 -34 5 -27 9 4 22 2 29 -4 21
-17 115 17 115 41 0 12 -7 19 -18 19 -10 0 -21 3 -25 6 -7 8 12 66 29 84 12
12 14 10 14 -16 0 -38 7 -46 32 -33 15 8 24 7 37 -5 10 -9 29 -16 44 -16 17 0
28 -7 32 -20 4 -12 15 -20 29 -20 27 0 46 -17 47 -44 0 -21 1 -21 8 -1 8 19 8
19 18 0 6 -11 8 -26 6 -32 -3 -7 0 -13 5 -13 6 0 14 10 18 22 l7 22 20 -25
c12 -14 18 -17 14 -7 -4 12 -2 15 9 11 7 -3 14 -9 14 -13 0 -4 8 -10 18 -14 9
-3 23 -9 30 -12 7 -3 12 1 12 10 0 9 -6 16 -12 17 -10 0 -10 2 0 6 7 3 26 -9
42 -27 25 -28 34 -32 60 -27 28 6 30 5 24 -18 -4 -15 -2 -25 5 -25 6 0 12 5
12 10 3 20 4 25 12 38 5 7 17 10 27 7 10 -3 21 -1 25 5 4 6 13 9 21 6 8 -3 14
-1 14 5 0 17 43 -2 73 -32 15 -16 22 -29 15 -29 -8 0 -9 -3 -3 -8 16 -12 33
-69 24 -83 -10 -17 -15 -12 -26 31 l-9 35 -15 -30 c-8 -17 -13 -47 -11 -68 l3
-39 21 24 21 23 -6 -22 c-4 -20 -2 -21 13 -13 13 7 21 7 25 0 5 -8 11 -7 21 1
11 9 15 8 20 -5 8 -21 4 -25 -27 -28 -15 -2 -23 2 -21 10 3 17 -13 15 -28 -3
-9 -11 -17 -12 -31 -5 -14 8 -20 6 -28 -7 -9 -16 -10 -15 -11 7 l0 25 -13 -25
c-8 -16 -20 -24 -31 -22 -14 3 -17 -1 -13 -17 2 -11 0 -22 -7 -24 -8 -3 -7
-14 2 -41 8 -21 11 -40 8 -43 -3 -4 -6 1 -6 9 0 9 -7 19 -16 22 -23 9 -34 7
-34 -5 0 -5 5 -7 10 -4 6 3 10 1 10 -5 0 -6 -6 -13 -14 -16 -8 -3 -17 -15 -21
-27 l-8 -22 -4 21 c-2 12 -12 25 -21 28 -9 3 -24 9 -32 12 -13 5 -13 4 0 -5 8
-6 11 -11 5 -11 -5 0 1 -10 15 -21 14 -12 18 -19 9 -16 -9 3 -27 -2 -39 -10
-21 -15 -24 -15 -39 4 -10 13 -26 19 -43 17 -15 -2 -30 2 -33 7 -12 19 -21 -1
-19 -38 3 -27 1 -34 -6 -23 -8 12 -13 13 -30 2 -16 -10 -24 -10 -40 0 -15 9
-22 10 -31 1 -14 -14 -39 -6 -39 13 0 8 10 14 22 14 21 0 21 0 2 15 -10 8 -33
15 -51 15 -17 0 -35 5 -38 10 -4 6 -15 8 -25 5 -12 -4 -22 0 -28 11 -8 15 -11
14 -25 -7 -13 -18 -19 -21 -29 -11 -9 9 -8 15 7 25 18 14 14 37 -6 37 -6 0 -7
-4 -4 -10 10 -16 -39 -12 -61 5 -10 8 -15 15 -10 15 5 0 3 6 -3 14 -8 10 -23
13 -47 9 -30 -5 -34 -3 -34 16 0 21 -10 27 -24 14 -11 -11 -40 -10 -49 2 -4 6
-12 4 -21 -7 -7 -11 -24 -16 -42 -15 -23 2 -29 -2 -28 -16 2 -17 1 -17 -17 -1
-11 10 -19 12 -19 6 0 -7 -9 -12 -21 -12 -11 0 -18 4 -15 8 3 5 -1 9 -8 9 -8
0 -12 -7 -8 -15 4 -12 0 -14 -19 -8 -13 4 -36 10 -51 13 -16 3 -28 9 -28 14 0
5 -12 7 -27 4 -16 -4 -38 -8 -51 -11 -13 -2 -21 -8 -18 -13 3 -4 -7 -8 -22 -8
-42 -1 -98 -9 -111 -17 -7 -5 -15 -5 -18 -2 -4 3 -1 6 5 6 7 0 12 4 12 8 0 4
-16 6 -35 4 -21 -3 -35 0 -35 7 0 6 5 11 12 11 6 0 8 3 5 6 -4 4 -18 -1 -31
-10 -33 -21 -60 -21 -52 0 4 11 1 14 -12 11 -53 -15 -72 -17 -72 -7 0 6 -5 8
-10 5 -6 -4 -8 -11 -5 -16 4 -5 0 -9 -9 -9 -8 0 -16 5 -18 11 -4 11 -83 -9
-130 -32 -24 -12 -28 -11 -28 6 0 10 -9 15 -27 14 -22 0 -24 -2 -10 -7 16 -7
16 -9 2 -27 -9 -11 -14 -14 -10 -7 11 22 -15 12 -76 -28 -54 -37 -102 -88
-105 -111 -1 -5 -2 -13 -3 -18 0 -6 -26 -29 -56 -53 -57 -44 -78 -76 -26 -39
37 26 65 28 34 2 -12 -10 -20 -20 -18 -22 2 -2 -6 -5 -18 -6 -12 -1 -93 -7
-180 -14 -86 -6 -160 -10 -162 -7 -3 2 4 23 15 46 11 22 20 47 20 55 0 8 7 20
15 27 8 7 12 16 9 21 -3 5 0 9 5 9 6 0 11 11 11 25 0 14 7 28 15 31 8 4 15 12
15 20 0 8 5 14 10 14 6 0 10 11 10 24 0 14 5 28 11 32 6 3 9 15 6 25 -3 10 -2
21 2 24 5 2 6 39 3 81 -9 138 20 284 81 414 44 92 59 114 67 99 12 -18 23 -5
45 50 16 42 25 53 55 62 30 11 32 13 15 20 -11 4 -15 8 -9 8 7 1 14 10 17 22
3 12 10 18 16 14 7 -3 11 2 11 14 0 12 6 21 14 21 8 0 21 8 28 19 7 10 23 21
36 25 15 5 25 18 29 38 5 23 10 28 25 25 20 -6 22 -2 32 45 l6 26 46 -14 c42
-12 48 -12 59 2 11 16 12 16 18 0 4 -9 13 -16 21 -16 9 0 23 -11 32 -25 21
-33 36 -32 23 1 -5 15 -6 36 -3 48 4 12 9 16 11 9 3 -7 15 -13 28 -13z m6320
-450 c19 -11 42 -38 53 -59 20 -38 20 -38 0 -69 -26 -41 -58 -49 -113 -28 -51
20 -58 28 -75 80 -12 38 -12 40 16 62 15 13 30 21 33 20 3 -2 15 0 26 5 11 4
22 8 24 8 2 1 18 -8 36 -19z m155 -740 l0 -170 -30 0 c-26 0 -32 6 -51 50 -12
27 -30 52 -40 55 -30 10 -22 23 21 35 38 10 62 29 41 31 -22 3 -26 5 -55 24
-24 16 -27 24 -23 51 8 50 58 93 110 94 l27 0 0 -170z m-1677 -221 c10 -11 29
-45 42 -75 18 -40 29 -55 42 -53 23 3 73 -18 73 -30 0 -6 12 -16 28 -23 20
-10 28 -22 30 -46 2 -21 12 -38 28 -49 23 -15 24 -17 8 -34 -9 -10 -39 -25
-68 -34 -28 -9 -59 -21 -69 -26 -20 -11 -57 -3 -57 12 0 5 -9 9 -20 9 -11 0
-19 -3 -18 -7 5 -17 -24 -53 -42 -53 -30 0 -25 13 30 70 28 29 50 59 50 66 0
8 -25 27 -56 42 -49 23 -60 35 -85 84 -33 65 -35 84 -15 133 13 30 20 35 48
35 21 0 40 -7 51 -21z m-3513 -162 c14 -3 62 -10 108 -15 46 -6 85 -12 88 -15
3 -3 -7 -17 -22 -32 l-27 -27 -18 23 -18 24 -10 -28 c-6 -16 -11 -33 -11 -38
0 -6 -23 -7 -62 -3 -59 7 -207 8 -272 2 -21 -2 -30 2 -32 15 -6 39 -14 48 -35
42 -19 -6 -59 17 -59 36 0 20 293 33 370 16z m-1296 -348 c0 -32 -6 -64 -12
-72 -7 -7 -9 -17 -5 -20 10 -11 -18 -37 -41 -37 -13 0 -33 11 -45 24 -22 23
-22 25 -4 36 13 8 14 13 6 16 -43 18 25 116 77 112 24 -2 25 -5 24 -59z m1580
-44 c-2 -76 16 -241 28 -261 4 -6 19 -44 34 -85 14 -41 30 -78 33 -84 4 -5 20
-32 35 -60 20 -37 22 -43 7 -25 -36 43 -126 183 -124 191 2 5 -7 8 -18 6 -12
-1 -24 4 -26 11 -3 6 3 12 12 12 15 0 17 7 11 50 -9 66 -15 80 -35 80 -15 1
-15 1 0 10 13 8 15 18 8 52 -10 52 -11 120 -3 143 4 9 14 15 23 13 12 -3 16
-15 15 -53z m-361 -32 c20 -48 16 -94 -17 -160 -20 -41 -24 -62 -22 -110 2
-32 5 -60 6 -63 1 -3 2 -8 1 -12 0 -5 4 -8 10 -8 8 0 8 -5 -1 -15 -7 -8 -8
-15 -2 -15 12 0 36 -56 28 -68 -3 -4 4 -23 15 -40 10 -18 19 -41 19 -51 0 -10
7 -32 16 -49 8 -18 12 -37 7 -44 -4 -7 -6 -21 -5 -30 5 -30 -72 -90 -104 -82
-25 7 -90 -21 -97 -41 -4 -9 -19 -15 -36 -15 -34 0 -81 -19 -81 -32 0 -5 -4
-6 -10 -3 -20 12 -133 -16 -151 -38 -10 -12 -18 -26 -19 -30 0 -11 -152 -157
-162 -157 -5 0 -8 -9 -8 -20 0 -13 -7 -20 -20 -20 -17 0 -20 7 -20 38 0 59 24
125 69 193 23 34 41 65 41 69 0 5 -10 10 -22 12 -21 3 -23 8 -20 53 4 52 24
87 82 141 17 16 39 45 49 64 39 75 64 115 73 121 5 3 9 8 8 10 -3 7 24 64 37
77 7 7 13 18 13 24 0 6 7 19 15 28 9 10 25 44 36 76 26 74 80 172 111 201 24
22 48 29 109 32 32 1 37 -3 52 -36z m2107 -58 c10 -12 8 -35 -8 -116 -11 -55
-27 -108 -36 -117 -8 -10 -18 -30 -22 -47 -4 -16 -32 -81 -63 -143 -119 -242
-260 -334 -563 -364 -227 -23 -492 18 -658 102 -58 29 -180 140 -220 200 -12
19 7 2 45 -38 66 -71 145 -130 215 -160 39 -16 64 -21 128 -23 23 -1 42 -5 42
-10 0 -5 -6 -9 -12 -10 -7 0 -3 -4 10 -9 27 -11 61 -2 40 11 -8 5 -9 9 -2 9 6
0 17 -7 24 -15 7 -8 16 -12 22 -9 5 3 16 3 26 -1 14 -5 14 -7 2 -15 -11 -7 -6
-9 17 -7 18 1 33 6 33 10 0 5 9 6 19 2 13 -4 23 0 30 12 9 14 12 15 19 5 7
-10 41 -14 128 -15 129 -1 243 21 347 68 69 30 165 102 210 157 36 43 117 202
117 229 0 11 2 11 11 -1 9 -12 10 -12 5 3 -8 24 25 149 41 160 6 4 15 39 19
77 7 72 12 81 34 55z m2910 -20 c19 -13 48 -35 65 -50 27 -24 34 -26 80 -19
105 16 100 20 103 -73 l3 -82 -43 18 c-24 11 -63 22 -88 26 -25 4 -53 14 -62
23 -14 12 -32 14 -89 8 -62 -6 -75 -4 -106 15 -46 29 -58 61 -37 104 18 38 75
67 114 59 14 -3 41 -16 60 -29z m-848 -30 c4 -16 25 -50 46 -74 35 -39 45 -44
91 -49 81 -7 84 -28 16 -97 l-55 -56 -54 6 c-63 8 -92 -4 -107 -43 -13 -33 3
-47 66 -56 56 -7 85 -22 85 -42 0 -23 -49 -103 -71 -114 -54 -30 -180 1 -227
54 -37 42 -48 122 -32 237 6 45 8 85 3 89 -4 5 -19 10 -33 12 -28 3 -40 39
-21 62 11 13 68 8 114 -9 26 -11 60 17 76 61 17 47 27 55 65 52 24 -2 32 -9
38 -33z m613 -157 c2 -2 11 -21 20 -41 15 -37 15 -38 -10 -63 -21 -21 -33 -25
-58 -20 -116 21 -112 21 -131 -18 -9 -20 -23 -36 -30 -36 -7 0 -41 -18 -75
-40 -70 -45 -88 -48 -119 -20 -27 25 -28 61 -3 117 25 54 66 76 162 83 50 4
89 14 115 28 28 16 51 21 82 18 24 -2 45 -6 47 -8z m-967 -175 c37 -28 40 -66
7 -97 -15 -14 -40 -28 -56 -31 -45 -10 -110 5 -136 31 -35 35 -30 68 15 99 31
22 45 26 90 22 32 -2 63 -12 80 -24z m-288 -23 c16 -16 19 -30 16 -58 -3 -20
-5 -42 -5 -48 -1 -18 -55 -36 -84 -28 -24 6 -27 11 -27 53 0 49 11 71 45 89
28 16 32 15 55 -8z m-153 -151 c35 -22 38 -43 15 -101 -19 -46 -39 -50 -167
-34 -64 8 -120 17 -123 21 -4 3 5 27 19 53 37 66 94 96 168 87 30 -3 69 -15
88 -26z m618 -127 c25 -13 10 -51 -27 -66 -24 -11 -41 -10 -93 2 -65 16 -80
30 -70 63 6 17 15 19 90 15 46 -2 91 -8 100 -14z m-614 -148 c39 -20 36 -51
-8 -74 -17 -9 -43 -24 -58 -34 l-27 -18 31 -30 c77 -75 -2 -173 -99 -123 -34
18 -50 43 -50 79 0 14 -4 26 -8 26 -5 0 -28 14 -51 30 l-41 30 22 41 c30 52
44 59 152 74 50 7 95 13 99 14 4 0 22 -6 38 -15z m1866 -3 c18 -15 21 -29 22
-99 l1 -82 -64 0 c-59 0 -66 2 -90 31 -29 34 -31 45 -15 86 27 73 98 104 146
64z m-4042 -240 c-10 -16 27 -43 52 -38 15 3 26 -1 29 -9 2 -8 7 -22 11 -31 3
-10 5 -21 5 -25 -1 -5 5 -8 13 -8 18 0 20 -27 3 -33 -7 -2 -10 -8 -5 -12 4 -5
13 -3 19 3 20 20 38 14 38 -13 0 -19 -5 -25 -22 -26 -17 -1 -19 -2 -5 -6 19
-5 22 -18 7 -28 -5 -3 -10 -1 -10 5 0 7 -8 9 -20 5 -14 -5 -20 -2 -20 9 0 9
-4 16 -8 16 -4 0 -13 13 -19 29 -8 24 -8 28 2 24 10 -3 12 2 8 16 -6 22 -33
29 -33 9 0 -7 -10 -18 -23 -23 -26 -12 -70 3 -63 22 3 6 0 13 -6 15 -12 4 31
107 45 108 5 0 6 -4 2 -9z m3483 -87 c12 -8 22 -22 22 -30 0 -24 -46 -107 -74
-133 -30 -29 -89 -35 -128 -15 -23 12 -28 21 -28 54 0 48 27 81 95 115 58 29
82 31 113 9z m-379 -105 c14 -11 34 -34 43 -51 15 -27 15 -35 3 -65 -16 -37
-35 -59 -73 -85 -36 -24 -66 -7 -59 31 4 20 -1 39 -19 64 -65 96 15 176 105
106z m-4980 -50 c31 -11 31 -12 12 -25 -22 -16 -19 -36 11 -66 29 -29 22 -44
-23 -47 -23 -1 -47 -7 -53 -14 -24 -25 -17 -107 9 -107 20 0 19 -26 0 -34 -8
-3 -15 -1 -15 3 0 5 6 12 13 14 6 3 0 6 -15 6 -29 1 -35 -8 -19 -24 6 -6 1
-14 -15 -22 -21 -10 -24 -10 -14 2 16 19 -1 26 -24 10 -19 -15 -14 -35 10 -35
8 0 14 -4 14 -10 0 -15 -7 -12 -40 12 l-30 22 -22 -24 -21 -23 -8 22 c-9 23
-34 28 -42 9 -4 -9 -6 -7 -6 3 -1 9 11 21 25 28 20 9 24 15 15 25 -8 10 -6 17
9 31 11 10 20 26 20 35 0 10 10 20 21 23 17 5 20 12 17 30 -4 18 -1 24 9 20 8
-3 13 3 13 17 0 15 9 25 30 33 23 9 28 16 24 32 -6 26 17 48 40 39 9 -3 16
-10 16 -14 0 -5 9 -6 20 -3 21 5 19 18 -2 18 -6 0 -13 6 -15 13 -6 15 -4 15
36 1z m3745 -45 c10 -4 16 -18 16 -40 0 -26 -11 -46 -49 -88 -27 -30 -54 -64
-60 -75 -15 -27 0 -63 38 -90 61 -44 53 -87 -25 -132 -44 -25 -63 -30 -91 -26
-47 8 -52 14 -59 68 -5 39 -3 49 20 76 14 17 26 36 26 43 0 13 -61 75 -81 82
-19 6 12 60 32 55 10 -3 27 6 41 20 30 33 105 85 143 100 16 6 31 12 32 12 1
1 8 -2 17 -5z m2196 -153 l0 -129 -84 -7 c-96 -8 -119 -3 -133 28 -22 49 21
85 90 74 35 -5 60 4 95 36 17 16 22 31 22 74 0 29 2 53 5 53 3 0 5 -58 5 -129z
m-1333 -3 c13 -12 23 -30 23 -39 0 -10 30 -42 68 -72 105 -85 133 -124 112
-156 -7 -13 -18 -11 -65 13 -31 15 -60 26 -64 24 -4 -2 -37 -21 -73 -42 -92
-54 -110 -101 -63 -158 31 -36 32 -67 3 -103 -20 -26 -24 -27 -87 -21 -74 7
-85 3 -94 -36 -9 -36 -50 -83 -87 -98 -25 -10 -39 -10 -73 0 -76 22 -92 31
-110 56 -23 31 -16 66 19 101 22 22 31 24 67 18 23 -4 65 -8 92 -9 28 -2 64
-6 82 -10 30 -7 32 -6 42 31 18 63 15 70 -30 76 -23 3 -51 2 -63 -2 -11 -5
-46 -11 -77 -15 -53 -7 -58 -6 -78 20 -46 59 -13 104 103 139 102 31 125 54
162 160 35 101 75 145 130 145 25 0 46 -7 61 -22z m-1504 -717 c58 -49 44 -75
-76 -136 -116 -59 -141 -58 -145 3 -4 61 27 106 93 131 85 33 92 33 128 2z
m-36 -310 c13 -19 23 -40 23 -47 0 -24 -39 -54 -67 -54 -37 1 -62 21 -73 61
-11 37 6 65 44 72 38 8 50 2 73 -32z m268 -117 l0 -68 72 -25 c64 -21 74 -28
82 -55 11 -35 9 -56 -13 -141 -8 -33 -14 -69 -13 -80 2 -19 -4 -20 -97 -18
-65 2 -102 7 -107 15 -4 6 -7 35 -6 63 1 39 -4 58 -21 80 -27 34 -27 48 -1
102 11 24 25 76 30 116 10 77 28 104 58 87 12 -7 16 -25 16 -76z m-3424 -28
c-19 -33 -19 -36 -3 -37 9 -1 21 -1 26 0 15 3 33 -19 39 -47 5 -25 9 -27 59
-27 29 0 58 -3 64 -8 14 -9 46 2 38 14 -8 14 23 22 61 15 27 -5 35 -12 36 -29
0 -12 3 -16 6 -9 7 18 34 15 49 -5 20 -27 17 -34 -11 -27 -31 8 -32 -7 -4 -48
22 -30 22 -30 1 -17 -12 7 -25 10 -29 6 -4 -5 -2 -12 5 -16 16 -10 5 -41 -13
-35 -9 4 -11 -2 -7 -21 3 -21 0 -27 -17 -32 -14 -3 -21 -13 -21 -29 0 -21 -10
-29 -32 -25 -5 0 -8 -5 -8 -12 0 -7 -16 -20 -35 -29 l-35 -16 0 30 0 30 -27
-32 c-21 -26 -24 -33 -12 -40 22 -14 -3 -32 -35 -24 -14 3 -26 10 -26 14 0 4
-11 7 -25 6 -20 -1 -24 -5 -19 -21 4 -18 4 -18 -6 -2 -6 9 -8 21 -5 27 3 5 -4
19 -16 31 -17 17 -23 19 -30 8 -5 -8 -9 -17 -9 -21 0 -5 -6 -8 -14 -8 -8 0
-16 -7 -20 -15 -8 -23 -25 -18 -36 10 -6 15 -17 25 -30 25 -11 0 -20 5 -20 10
0 6 -9 10 -20 10 -21 0 -29 33 -11 44 13 9 1 46 -15 46 -8 0 -14 -7 -14 -16 0
-20 -22 -42 -37 -37 -9 3 -10 9 -1 23 10 15 9 23 -5 38 -9 10 -17 29 -17 41 0
19 4 21 23 15 21 -6 21 -6 5 12 -19 22 -10 48 14 39 12 -5 17 4 22 37 9 53 40
88 78 88 16 0 31 6 34 14 3 8 14 16 25 19 15 4 21 -2 27 -26 13 -48 27 -42 28
13 1 36 6 56 20 69 27 26 28 19 5 -23z m3757 18 c12 -8 22 -21 22 -29 0 -31
38 -38 112 -20 59 15 72 16 79 4 18 -29 13 -39 -58 -101 -35 -32 -70 -51 -110
-63 -107 -31 -213 1 -185 57 6 13 18 49 27 80 22 80 64 107 113 72z m-5039
-13 c11 -11 25 -37 30 -58 6 -21 20 -51 31 -68 17 -26 18 -31 4 -46 -12 -14
-21 -14 -66 -4 -47 10 -54 15 -70 51 -22 48 -22 76 -3 114 18 35 46 39 74 11z
m4939 -454 c6 -12 13 -30 16 -40 7 -23 -21 -94 -41 -101 -22 -9 -107 4 -115
18 -21 31 -4 93 35 131 28 27 90 22 105 -8z m1451 -61 c23 -28 23 -79 -1 -120
-31 -53 -55 -67 -73 -42 -8 11 -12 29 -9 42 4 15 -2 36 -15 57 -35 58 -29 72
32 75 38 2 57 -1 66 -12z m-389 -83 c15 -9 44 -41 64 -73 l36 -56 95 4 c115 5
119 -1 49 -91 -41 -52 -46 -63 -41 -96 2 -21 12 -55 22 -75 22 -45 14 -66 -23
-66 -76 0 -152 68 -152 137 0 33 -9 46 -66 94 -116 96 -123 214 -16 238 2 1
17 -6 32 -16z m510 -115 c0 -63 8 -83 41 -102 37 -22 35 -51 -4 -74 -34 -21
-58 -9 -71 37 -6 21 -20 38 -40 48 -37 19 -45 30 -39 53 8 30 64 80 89 80 22
0 24 -4 24 -42z m-543 -544 c21 -16 42 -35 46 -42 4 -6 26 -21 48 -33 36 -18
42 -19 52 -5 18 23 64 37 90 27 30 -12 75 -61 56 -61 -12 0 -11 -2 1 -10 11
-7 7 -10 -18 -10 -19 0 -47 -7 -62 -17 -24 -14 -27 -20 -19 -40 11 -29 -11
-77 -43 -94 -33 -18 -82 13 -98 62 -11 31 -20 41 -49 50 -20 6 -53 29 -74 51
-24 25 -44 38 -55 34 -96 -26 -121 -29 -151 -17 -50 21 -58 37 -37 76 23 42
33 46 126 55 108 11 143 6 187 -26z m616 -195 c25 -26 41 -32 86 -36 31 -3 68
-12 84 -21 26 -16 68 -69 92 -115 5 -11 30 -34 55 -52 45 -31 77 -79 82 -125
2 -19 -4 -28 -32 -42 -50 -25 -86 -22 -116 7 -21 21 -24 31 -18 60 3 19 3 46
0 60 -6 24 -10 25 -77 25 -39 0 -79 4 -89 10 -27 14 -60 73 -60 107 0 41 -17
53 -76 53 -43 0 -56 4 -68 21 -13 19 -13 24 0 45 29 44 94 46 137 3z m547 -55
c33 -10 67 -29 87 -49 28 -28 33 -40 33 -79 0 -34 6 -50 22 -66 12 -11 25 -20
30 -20 4 0 8 -20 8 -44 l0 -43 -47 9 c-27 5 -77 7 -113 6 -62 -3 -65 -2 -68
21 -3 16 7 35 33 61 31 32 36 43 31 65 -9 35 -63 58 -114 48 -86 -17 -119 20
-71 81 17 22 29 26 68 26 26 0 72 -7 101 -16z"/>
<path d="M4798 10187 c-20 -12 -60 -42 -89 -67 -67 -58 -100 -80 -120 -80 -23
0 -99 -57 -99 -74 0 -8 -12 -28 -26 -45 -14 -17 -21 -31 -15 -31 6 0 11 -11
11 -25 0 -14 5 -25 12 -25 6 0 20 -7 30 -17 12 -10 18 -12 18 -4 0 8 7 10 21
6 22 -7 79 12 79 26 0 5 5 9 12 9 11 0 148 132 148 144 0 3 15 28 33 54 48 72
57 89 57 116 0 18 -21 40 -33 35 -1 0 -19 -10 -39 -22z"/>
</g>
</svg>
